<svg viewBox="0 0 24 24" xmlns="http://www.w3.org/2000/svg" id="Programming-Book--Streamline-Ultimate" height="24" width="24">
  <desc>
    Programming Book Streamline Icon: https://streamlinehq.com
  </desc>
  <path d="M5.5 2.5h11a1 1 0 0 1 1 1v1" fill="none" stroke="#000000" stroke-linecap="round" stroke-linejoin="round" stroke-width="1"></path>
  <path d="M19.5 4.5v-3a1 1 0 0 0 -1 -1h-13a2 2 0 0 0 0 4za1 1 0 0 1 1 1v17a1 1 0 0 1 -1 1h-14a2 2 0 0 1 -2 -2v-19" fill="none" stroke="#000000" stroke-linecap="round" stroke-linejoin="round" stroke-width="1"></path>
  <path d="m7.5 10.504 2.5 2.5 -2.5 2.5" fill="none" stroke="#000000" stroke-linecap="round" stroke-linejoin="round" stroke-width="1"></path>
  <path d="m12.5 14.504 4 0" fill="none" stroke="#000000" stroke-linecap="round" stroke-linejoin="round" stroke-width="1"></path>
</svg>